<?xml version="1.0" encoding="iso-8859-1"?>
<!-- Uploaded to: SVG Repo, www.svgrepo.com, Generator: SVG Repo Mixer Tools -->
<svg fill="#FFFFFF" height="800px" width="800px" version="1.1" id="Layer_1" xmlns="http://www.w3.org/2000/svg" xmlns:xlink="http://www.w3.org/1999/xlink" 
	 viewBox="0 0 512 512" xml:space="preserve">
<g>
	<g>
		<path d="M227.797,122.756h-23.361V94.679c0-4.199-3.404-7.604-7.604-7.604H38.568c-4.2,0-7.604,3.405-7.604,7.604v28.077H7.604
			c-4.2,0-7.604,3.405-7.604,7.604v35.681c0,4.199,3.404,7.604,7.604,7.604h18.531l13.281,243.693c0.22,4.033,3.555,7.19,7.593,7.19
			h141.382c4.038,0,7.373-3.157,7.593-7.19l13.282-243.693h18.531c4.2,0,7.604-3.405,7.604-7.604V130.36
			C235.401,126.16,231.997,122.756,227.797,122.756z M46.172,102.283h143.056v20.473H46.172V102.283z M181.191,409.32H54.21
			l-0.963-17.68h128.907L181.191,409.32z M182.983,376.432H52.418L41.367,173.645h152.668L182.983,376.432z M220.193,158.437
			h-18.129H33.337H15.208v-20.473h23.36h158.264h23.361V158.437z"/>
	</g>
</g>
<g>
	<g>
		<path d="M154.089,238.337c-2.904-7.265-8.482-12.869-15.709-15.778c-7.228-2.91-15.132-2.734-22.258,0.493
			c-13.381,6.058-30.841,17.027-38.031,34.886c-7.234,17.973-2.149,38.117,3.39,51.852c2.873,7.124,8.392,12.633,15.539,15.51
			c3.406,1.371,6.957,2.054,10.503,2.054c3.893,0,7.778-0.825,11.446-2.472c13.511-6.065,31.136-17.067,38.371-35.04
			C164.53,271.983,159.541,251.975,154.089,238.337z M143.234,284.164c-5.344,13.272-19.531,21.925-30.492,26.845
			c-3.199,1.438-6.765,1.503-10.042,0.185c-3.275-1.319-5.802-3.837-7.114-7.091c-4.494-11.143-8.73-27.211-3.387-40.484
			c5.308-13.182,19.35-21.802,30.195-26.711c1.75-0.792,3.596-1.188,5.442-1.188c1.646,0,3.292,0.316,4.866,0.949
			c3.338,1.344,5.919,3.942,7.267,7.315C144.387,255.036,148.54,270.981,143.234,284.164z"/>
	</g>
</g>
<g>
	<g>
		<path d="M126.279,252.619c-3.898-1.568-8.326,0.319-9.893,4.215l-11.956,29.695c-1.568,3.896,0.317,8.325,4.214,9.894
			c0.931,0.375,1.892,0.552,2.837,0.552c3.012,0,5.863-1.802,7.056-4.766l11.956-29.696
			C132.062,258.617,130.176,254.188,126.279,252.619z"/>
	</g>
</g>
<g>
	<g>
		<path d="M512,281.084v-10.856c0-34.252-27.867-62.119-62.12-62.119H314.528c-34.252,0-62.119,27.867-62.119,62.119v10.856
			c0,4.552,3.703,8.255,8.255,8.255h1.316c-0.228,1.168-0.355,2.372-0.355,3.606v7.5c0,5.363,2.267,10.197,5.88,13.627
			c-3.612,3.43-5.88,8.264-5.88,13.627v33.77c0,1.234,0.128,2.437,0.355,3.606h-1.316c-4.551,0-8.255,3.704-8.255,8.256v22.823
			c0,15.864,12.905,28.77,28.77,28.77h202.049c15.864,0,28.771-12.906,28.771-28.77v-22.823c0-4.552-3.703-8.256-8.256-8.256h-1.316
			c0.228-1.168,0.355-2.372,0.355-3.606V327.7c0-5.363-2.267-10.197-5.88-13.627c3.612-3.43,5.88-8.264,5.88-13.627v-7.5
			c0-1.234-0.128-2.437-0.355-3.606h1.316C508.297,289.34,512,285.637,512,281.084z M496.792,396.154
			c0,7.478-6.084,13.562-13.563,13.562H281.179c-7.478,0-13.562-6.084-13.562-13.562v-15.87h12.821h203.533h12.821V396.154z
			 M323.784,344.831c3.372,0,6.836-0.07,10.505-0.145c18.896-0.38,42.414-0.859,83.476,7.355c6.336,1.267,12.117,1.83,17.393,1.829
			c31.22-0.001,44.666-19.703,49.478-29.707c1.649,0.323,2.94,1.809,2.94,3.536v33.77c0,1.955-1.652,3.606-3.606,3.606H280.438
			v0.001c-1.955,0-3.606-1.652-3.606-3.606V327.7c0-1.955,1.652-3.606,3.606-3.606h9.238
			C294.22,331.361,305.151,344.831,323.784,344.831z M309.392,324.093h157.711v0.001c-1.259,1.683-2.789,3.427-4.633,5.09
			c-9.813,8.847-23.852,11.521-41.723,7.945c-42.69-8.538-68.161-8.022-86.766-7.647c-3.589,0.072-6.979,0.141-10.197,0.141
			C317.774,329.623,312.991,327.129,309.392,324.093z M483.97,304.051H280.437c-1.955,0-3.606-1.652-3.606-3.606v-7.5
			c0-1.955,1.652-3.606,3.606-3.606H483.97c1.955,0.001,3.606,1.652,3.606,3.606v7.5C487.576,302.4,485.924,304.051,483.97,304.051z
			 M496.793,274.132h-12.821H280.439h-12.821v-3.904h-0.001c0-25.867,21.045-46.911,46.911-46.911h135.353
			c25.868,0,46.912,21.045,46.912,46.911V274.132z"/>
	</g>
</g>
</svg>